<svg xmlns="http://www.w3.org/2000/svg" fill="currentColor" class="e4n64dd1 css-bp281g eizj3800" data-refid="svg" viewBox="0 0 270 153">
  <path d="M30 13h10v10H30zM40 13h10v10H40zM50 13h10v10H50zM70 13h10v10H70zM80 13h10v10H80zM20 23h10v10H20zM30 23h10v10H30zM40 23h10v10H40zM50 23h10v10H50zM70 23h10v10H70zM80 23h10v10H80zM20 33h10v10H20zM30 33h10v10H30zM0 43h10v10H0zM10 43h10v10H10zM20 43h10v10H20zM30 43h10v10H30zM40 43h10v10H40zM50 43h10v10H50zM70 43h10v10H70zM80 43h10v10H80zM100 43h10v10h-10zM110 43h10v10h-10zM120 43h10v10h-10zM160 43h10v10h-10zM170 43h10v10h-10zM180 43h10v10h-10zM210 43h10v10h-10zM220 43h10v10h-10zM230 43h10v10h-10zM240 43h10v10h-10zM0 53h10v10H0zM10 53h10v10H10zM20 53h10v10H20zM30 53h10v10H30zM40 53h10v10H40zM50 53h10v10H50zM70 53h10v10H70zM80 53h10v10H80zM110 53h10v10h-10zM120 53h10v10h-10zM160 53h10v10h-10zM170 53h10v10h-10zM200 53h10v10h-10zM210 53h10v10h-10zM220 53h10v10h-10zM230 53h10v10h-10zM240 53h10v10h-10zM250 53h10v10h-10zM20 63h10v10H20zM30 63h10v10H30zM70 63h10v10H70zM80 63h10v10H80zM110 63h10v10h-10zM120 63h10v10h-10zM160 63h10v10h-10zM170 63h10v10h-10zM190 63h10v10h-10zM200 63h10v10h-10zM210 63h10v10h-10zM240 63h10v10h-10zM250 63h10v10h-10zM260 63h10v10h-10zM20 73h10v10H20zM30 73h10v10H30zM70 73h10v10H70zM80 73h10v10H80zM110 73h10v10h-10zM120 73h10v10h-10zM130 73h10v10h-10zM150 73h10v10h-10zM160 73h10v10h-10zM170 73h10v10h-10zM190 73h10v10h-10zM200 73h10v10h-10zM250 73h10v10h-10zM260 73h10v10h-10zM20 83h10v10H20zM30 83h10v10H30zM70 83h10v10H70zM80 83h10v10H80zM120 83h10v10h-10zM130 83h10v10h-10zM150 83h10v10h-10zM160 83h10v10h-10zM190 83h10v10h-10zM200 83h10v10h-10zM210 83h10v10h-10zM220 83h10v10h-10zM230 83h10v10h-10zM240 83h10v10h-10zM250 83h10v10h-10zM260 83h10v10h-10zM20 93h10v10H20zM30 93h10v10H30zM70 93h10v10H70zM80 93h10v10H80zM120 93h10v10h-10zM130 93h10v10h-10zM150 93h10v10h-10zM160 93h10v10h-10zM190 93h10v10h-10zM200 93h10v10h-10zM20 103h10v10H20zM30 103h10v10H30zM70 103h10v10H70zM80 103h10v10H80zM120 103h10v10h-10zM130 103h10v10h-10zM140 103h10v10h-10zM150 103h10v10h-10zM160 103h10v10h-10zM20 113h10v10H20zM30 113h10v10H30zM70 113h10v10H70zM80 113h10v10H80zM130 113h10v10h-10zM140 113h10v10h-10zM150 113h10v10h-10zM190 103h10v10h-10zM200 103h10v10h-10zM210 103h10v10h-10zM240 103h10v10h-10zM250 103h10v10h-10zM260 103h10v10h-10zM20 123h10v10H20zM30 123h10v10H30zM70 123h10v10H70zM80 123h10v10H80zM130 123h10v10h-10zM140 123h10v10h-10zM150 123h10v10h-10zM200 113h10v10h-10zM210 113h10v10h-10zM220 113h10v10h-10zM220 123h10v10h-10zM210 123h10v10h-10zM230 113h10v10h-10zM230 123h10v10h-10zM240 123h10v10h-10zM240 113h10v10h-10zM250 113h10v10h-10z"/>
</svg>
