<svg xmlns="http://www.w3.org/2000/svg" viewBox="0 0 1288 312" fill="black" class="css-1bijtsc eizj3800">
  <rect x="851.596" y="0.429932" width="21.2141" height="20.2039"></rect>
  <rect x="872.809" y="0.429932" width="20.2039" height="20.2039"></rect>
  <rect x="1079.9" y="0.429932" width="21.2141" height="20.2039"></rect>
  <rect x="1101.11" y="0.429932" width="20.2039" height="20.2039"></rect>
  <rect y="20.6339" width="21.2141" height="21.2141"></rect>
  <rect x="21.2148" y="20.6339" width="20.2039" height="21.2141"></rect>
  <rect x="145.469" y="20.6339" width="21.2141" height="21.2141"></rect>
  <rect x="166.682" y="20.6339" width="20.2039" height="21.2141"></rect>
  <rect x="581.873" y="20.6339" width="20.2039" height="21.2141"></rect>
  <rect x="602.076" y="20.6339" width="21.2141" height="21.2141"></rect>
  <rect x="851.596" y="20.6339" width="21.2141" height="21.2141"></rect>
  <rect x="872.809" y="20.6339" width="20.2039" height="21.2141"></rect>
  <rect x="1079.9" y="20.6339" width="21.2141" height="21.2141"></rect>
  <rect x="1101.11" y="20.6339" width="20.2039" height="21.2141"></rect>
  <rect y="41.848" width="21.2141" height="20.2039"></rect>
  <rect x="21.2148" y="41.848" width="20.2039" height="20.2039"></rect>
  <rect x="41.418" y="41.848" width="21.2141" height="20.2039"></rect>
  <rect x="145.469" y="41.848" width="21.2141" height="20.2039"></rect>
  <rect x="166.682" y="41.848" width="20.2039" height="20.2039"></rect>
  <rect x="581.873" y="41.848" width="20.2039" height="20.2039"></rect>
  <rect x="602.076" y="41.848" width="21.2141" height="20.2039"></rect>
  <rect x="851.596" y="41.848" width="21.2141" height="20.2039"></rect>
  <rect x="872.809" y="41.848" width="20.2039" height="20.2039"></rect>
  <rect x="1038.48" y="41.848" width="21.2141" height="20.2039"></rect>
  <rect y="62.0519" width="21.2141" height="21.2141"></rect>
  <rect x="21.2148" y="62.0519" width="20.2039" height="21.2141"></rect>
  <rect x="41.418" y="62.0519" width="21.2141" height="21.2141"></rect>
  <rect x="62.6328" y="62.0519" width="20.2039" height="21.2141"></rect>
  <rect x="145.469" y="62.0519" width="21.2141" height="21.2141"></rect>
  <rect x="166.682" y="62.0519" width="20.2039" height="21.2141"></rect>
  <rect x="269.723" y="62.0519" width="21.2141" height="21.2141"></rect>
  <rect x="249.518" y="62.0519" width="20.2039" height="21.2141"></rect>
  <rect x="290.936" y="62.0519" width="20.2039" height="21.2141"></rect>
  <rect x="311.141" y="62.0519" width="21.2141" height="21.2141"></rect>
  <rect x="436.404" y="62.0519" width="20.2039" height="21.2141"></rect>
  <rect x="456.609" y="62.0519" width="21.2141" height="21.2141"></rect>
  <rect x="477.822" y="62.0519" width="21.2141" height="21.2141"></rect>
  <rect x="540.455" y="62.0519" width="20.2039" height="21.2141"></rect>
  <rect x="560.658" y="62.0519" width="21.2141" height="21.2141"></rect>
  <rect x="581.873" y="62.0519" width="20.2039" height="21.2141"></rect>
  <rect x="602.076" y="62.0519" width="21.2141" height="21.2141"></rect>
  <rect x="623.291" y="62.0519" width="20.2039" height="21.2141"></rect>
  <rect x="643.494" y="62.0519" width="21.2141" height="21.2141"></rect>
  <rect x="727.342" y="62.0519" width="20.2039" height="21.2141"></rect>
  <rect x="747.545" y="62.0519" width="21.2141" height="21.2141"></rect>
  <rect x="768.76" y="62.0519" width="20.2039" height="21.2141"></rect>
  <rect x="851.596" y="62.0519" width="21.2141" height="21.2141"></rect>
  <rect x="872.809" y="62.0519" width="20.2039" height="21.2141"></rect>
  <rect x="955.645" y="62.0519" width="21.2141" height="21.2141"></rect>
  <rect x="976.859" y="62.0519" width="20.2039" height="21.2141"></rect>
  <rect x="997.064" y="62.0519" width="21.2141" height="21.2141"></rect>
  <rect x="1018.28" y="62.0519" width="20.2039" height="21.2141"></rect>
  <rect x="1038.48" y="62.0519" width="21.2141" height="21.2141"></rect>
  <rect x="1079.9" y="62.0519" width="21.2141" height="21.2141"></rect>
  <rect x="1101.11" y="62.0519" width="20.2039" height="21.2141"></rect>
  <rect x="1183.95" y="62.0519" width="21.2141" height="21.2141"></rect>
  <rect x="1205.16" y="62.0519" width="20.2039" height="21.2141"></rect>
  <rect x="1225.37" y="62.0519" width="21.2141" height="21.2141"></rect>
  <rect y="83.266" width="21.2141" height="21.2141"></rect>
  <rect x="21.2148" y="83.266" width="20.2039" height="21.2141"></rect>
  <rect x="41.418" y="83.266" width="21.2141" height="21.2141"></rect>
  <rect x="62.6328" y="83.266" width="20.2039" height="21.2141"></rect>
  <rect x="145.469" y="83.266" width="21.2141" height="21.2141"></rect>
  <rect x="166.682" y="83.266" width="20.2039" height="21.2141"></rect>
  <rect x="228.305" y="83.266" width="21.2141" height="21.2141"></rect>
  <rect x="249.518" y="83.266" width="20.2039" height="21.2141"></rect>
  <rect x="269.723" y="83.266" width="21.2141" height="21.2141"></rect>
  <rect x="290.936" y="83.266" width="20.2039" height="21.2141"></rect>
  <rect x="311.141" y="83.266" width="21.2141" height="21.2141"></rect>
  <rect x="332.355" y="83.266" width="21.2141" height="21.2141"></rect>
  <rect x="415.191" y="83.266" width="21.2141" height="21.2141"></rect>
  <rect x="436.404" y="83.266" width="20.2039" height="21.2141"></rect>
  <rect x="456.609" y="83.266" width="21.2141" height="21.2141"></rect>
  <rect x="477.822" y="83.266" width="21.2141" height="21.2141"></rect>
  <rect x="499.037" y="83.266" width="20.2039" height="21.2141"></rect>
  <rect x="540.455" y="83.266" width="20.2039" height="21.2141"></rect>
  <rect x="560.658" y="83.266" width="21.2141" height="21.2141"></rect>
  <rect x="581.873" y="83.266" width="20.2039" height="21.2141"></rect>
  <rect x="602.076" y="83.266" width="21.2141" height="21.2141"></rect>
  <rect x="623.291" y="83.266" width="20.2039" height="21.2141"></rect>
  <rect x="643.494" y="83.266" width="21.2141" height="21.2141"></rect>
  <rect x="706.127" y="83.266" width="21.2141" height="21.2141"></rect>
  <rect x="727.342" y="83.266" width="20.2039" height="21.2141"></rect>
  <rect x="747.545" y="83.266" width="21.2141" height="21.2141"></rect>
  <rect x="768.76" y="83.266" width="20.2039" height="21.2141"></rect>
  <rect x="788.963" y="83.266" width="21.2141" height="21.2141"></rect>
  <rect x="851.596" y="83.266" width="21.2141" height="21.2141"></rect>
  <rect x="872.809" y="83.266" width="20.2039" height="21.2141"></rect>
  <rect x="934.432" y="83.266" width="21.2141" height="21.2141"></rect>
  <rect x="955.645" y="83.266" width="21.2141" height="21.2141"></rect>
  <rect x="976.859" y="83.266" width="20.2039" height="21.2141"></rect>
  <rect x="997.064" y="83.266" width="21.2141" height="21.2141"></rect>
  <rect x="1018.28" y="83.266" width="20.2039" height="21.2141"></rect>
  <rect x="1079.9" y="83.266" width="21.2141" height="21.2141"></rect>
  <rect x="1101.11" y="83.266" width="20.2039" height="21.2141"></rect>
  <rect x="1142.53" y="83.266" width="21.2141" height="21.2141"></rect>
  <rect x="1163.75" y="83.266" width="20.2039" height="21.2141"></rect>
  <rect x="1183.95" y="83.266" width="21.2141" height="21.2141"></rect>
  <rect x="1205.16" y="83.266" width="20.2039" height="21.2141"></rect>
  <rect x="1225.37" y="83.266" width="21.2141" height="21.2141"></rect>
  <rect x="1246.58" y="83.266" width="20.2039" height="21.2141"></rect>
  <rect y="104.48" width="21.2141" height="20.2039"></rect>
  <rect x="21.2148" y="104.48" width="20.2039" height="20.2039"></rect>
  <rect x="41.418" y="104.48" width="21.2141" height="20.2039"></rect>
  <rect x="62.6328" y="104.48" width="20.2039" height="20.2039"></rect>
  <rect x="82.8359" y="104.48" width="21.2141" height="20.2039"></rect>
  <rect x="145.469" y="104.48" width="21.2141" height="20.2039"></rect>
  <rect x="166.682" y="104.48" width="20.2039" height="20.2039"></rect>
  <rect x="228.305" y="104.48" width="21.2141" height="20.2039"></rect>
  <rect x="249.518" y="104.48" width="20.2039" height="20.2039"></rect>
  <rect x="311.141" y="104.48" width="21.2141" height="20.2039"></rect>
  <rect x="332.355" y="104.48" width="21.2141" height="20.2039"></rect>
  <rect x="353.568" y="104.48" width="20.2039" height="20.2039"></rect>
  <rect x="394.986" y="104.48" width="20.2039" height="20.2039"></rect>
  <rect x="415.191" y="104.48" width="21.2141" height="20.2039"></rect>
  <rect x="499.037" y="104.48" width="20.2039" height="20.2039"></rect>
  <rect x="519.24" y="104.48" width="21.2141" height="20.2039"></rect>
  <rect x="581.873" y="104.48" width="20.2039" height="20.2039"></rect>
  <rect x="602.076" y="104.48" width="21.2141" height="20.2039"></rect>
  <rect x="685.924" y="104.48" width="20.2039" height="20.2039"></rect>
  <rect x="685.924" y="83.266" width="20.2039" height="21.2141"></rect>
  <rect x="706.127" y="104.48" width="21.2141" height="20.2039"></rect>
  <rect x="788.963" y="104.48" width="21.2141" height="20.2039"></rect>
  <rect x="810.178" y="104.48" width="21.2141" height="20.2039"></rect>
  <rect x="851.596" y="104.48" width="21.2141" height="20.2039"></rect>
  <rect x="872.809" y="104.48" width="20.2039" height="20.2039"></rect>
  <rect x="914.227" y="104.48" width="20.2039" height="20.2039"></rect>
  <rect x="934.432" y="104.48" width="21.2141" height="20.2039"></rect>
  <rect x="1018.28" y="104.48" width="20.2039" height="20.2039"></rect>
  <rect x="1038.48" y="104.48" width="21.2141" height="20.2039"></rect>
  <rect x="1079.9" y="104.48" width="21.2141" height="20.2039"></rect>
  <rect x="1101.11" y="104.48" width="20.2039" height="20.2039"></rect>
  <rect x="1142.53" y="104.48" width="21.2141" height="20.2039"></rect>
  <rect x="1163.75" y="104.48" width="20.2039" height="20.2039"></rect>
  <rect x="1246.58" y="104.48" width="20.2039" height="20.2039"></rect>
  <rect x="1266.79" y="104.48" width="21.2141" height="20.2039"></rect>
  <rect y="124.684" width="21.2141" height="21.2141"></rect>
  <rect x="21.2148" y="124.684" width="20.2039" height="21.2141"></rect>
  <rect x="62.6328" y="124.684" width="20.2039" height="21.2141"></rect>
  <rect x="82.8359" y="124.684" width="21.2141" height="21.2141"></rect>
  <rect x="104.051" y="124.684" width="20.2039" height="21.2141"></rect>
  <rect x="145.469" y="124.684" width="21.2141" height="21.2141"></rect>
  <rect x="166.682" y="124.684" width="20.2039" height="21.2141"></rect>
  <rect x="208.1" y="124.684" width="20.2039" height="21.2141"></rect>
  <rect x="208.1" y="104.48" width="20.2039" height="20.2039"></rect>
  <rect x="228.305" y="124.684" width="21.2141" height="21.2141"></rect>
  <rect x="332.355" y="124.684" width="21.2141" height="21.2141"></rect>
  <rect x="353.568" y="124.684" width="20.2039" height="21.2141"></rect>
  <rect x="394.986" y="124.684" width="20.2039" height="21.2141"></rect>
  <rect x="415.191" y="124.684" width="21.2141" height="21.2141"></rect>
  <rect x="436.404" y="124.684" width="20.2039" height="21.2141"></rect>
  <rect x="456.609" y="124.684" width="21.2141" height="21.2141"></rect>
  <rect x="581.873" y="124.684" width="20.2039" height="21.2141"></rect>
  <rect x="602.076" y="124.684" width="21.2141" height="21.2141"></rect>
  <rect x="788.963" y="124.684" width="21.2141" height="21.2141"></rect>
  <rect x="810.178" y="124.684" width="21.2141" height="21.2141"></rect>
  <rect x="851.596" y="124.684" width="21.2141" height="21.2141"></rect>
  <rect x="872.809" y="124.684" width="20.2039" height="21.2141"></rect>
  <rect x="914.227" y="124.684" width="20.2039" height="21.2141"></rect>
  <rect x="934.432" y="124.684" width="21.2141" height="21.2141"></rect>
  <rect x="1018.28" y="124.684" width="20.2039" height="21.2141"></rect>
  <rect x="1038.48" y="124.684" width="21.2141" height="21.2141"></rect>
  <rect x="1079.9" y="124.684" width="21.2141" height="21.2141"></rect>
  <rect x="1101.11" y="124.684" width="20.2039" height="21.2141"></rect>
  <rect x="1246.58" y="124.684" width="20.2039" height="21.2141"></rect>
  <rect x="1266.79" y="124.684" width="21.2141" height="21.2141"></rect>
  <rect y="145.898" width="21.2141" height="20.2039"></rect>
  <rect x="21.2148" y="145.898" width="20.2039" height="20.2039"></rect>
  <rect x="82.8359" y="145.898" width="21.2141" height="20.2039"></rect>
  <rect x="104.051" y="145.898" width="20.2039" height="20.2039"></rect>
  <rect x="124.254" y="145.898" width="21.2141" height="20.2039"></rect>
  <rect x="145.469" y="145.898" width="21.2141" height="20.2039"></rect>
  <rect x="166.682" y="145.898" width="20.2039" height="20.2039"></rect>
  <rect x="208.1" y="145.898" width="20.2039" height="20.2039"></rect>
  <rect x="228.305" y="145.898" width="21.2141" height="20.2039"></rect>
  <rect x="332.355" y="145.898" width="21.2141" height="20.2039"></rect>
  <rect x="353.568" y="145.898" width="20.2039" height="20.2039"></rect>
  <rect x="415.191" y="145.898" width="21.2141" height="20.2039"></rect>
  <rect x="436.404" y="145.898" width="20.2039" height="20.2039"></rect>
  <rect x="456.609" y="145.898" width="21.2141" height="20.2039"></rect>
  <rect x="477.822" y="145.898" width="21.2141" height="20.2039"></rect>
  <rect x="499.037" y="145.898" width="20.2039" height="20.2039"></rect>
  <rect x="581.873" y="145.898" width="20.2039" height="20.2039"></rect>
  <rect x="602.076" y="145.898" width="21.2141" height="20.2039"></rect>
  <rect x="706.127" y="145.898" width="21.2141" height="20.2039"></rect>
  <rect x="727.342" y="145.898" width="20.2039" height="20.2039"></rect>
  <rect x="747.545" y="145.898" width="21.2141" height="20.2039"></rect>
  <rect x="768.76" y="145.898" width="20.2039" height="20.2039"></rect>
  <rect x="788.963" y="145.898" width="21.2141" height="20.2039"></rect>
  <rect x="810.178" y="145.898" width="21.2141" height="20.2039"></rect>
  <rect x="851.596" y="145.898" width="21.2141" height="20.2039"></rect>
  <rect x="872.809" y="145.898" width="20.2039" height="20.2039"></rect>
  <rect x="934.432" y="145.898" width="21.2141" height="20.2039"></rect>
  <rect x="955.645" y="145.898" width="21.2141" height="20.2039"></rect>
  <rect x="976.859" y="145.898" width="20.2039" height="20.2039"></rect>
  <rect x="997.064" y="145.898" width="21.2141" height="20.2039"></rect>
  <rect x="1018.28" y="145.898" width="20.2039" height="20.2039"></rect>
  <rect x="1079.9" y="145.898" width="21.2141" height="20.2039"></rect>
  <rect x="1101.11" y="145.898" width="20.2039" height="20.2039"></rect>
  <rect x="1163.75" y="145.898" width="20.2039" height="20.2039"></rect>
  <rect x="1183.95" y="145.898" width="21.2141" height="20.2039"></rect>
  <rect x="1205.16" y="145.898" width="20.2039" height="20.2039"></rect>
  <rect x="1225.37" y="145.898" width="21.2141" height="20.2039"></rect>
  <rect x="1246.58" y="145.898" width="20.2039" height="20.2039"></rect>
  <rect x="1266.79" y="145.898" width="21.2141" height="20.2039"></rect>
  <rect y="166.102" width="21.2141" height="21.2141"></rect>
  <rect x="21.2148" y="166.102" width="20.2039" height="21.2141"></rect>
  <rect x="104.051" y="166.102" width="20.2039" height="21.2141"></rect>
  <rect x="124.254" y="166.102" width="21.2141" height="21.2141"></rect>
  <rect x="145.469" y="166.102" width="21.2141" height="21.2141"></rect>
  <rect x="166.682" y="166.102" width="20.2039" height="21.2141"></rect>
  <rect x="208.1" y="166.102" width="20.2039" height="21.2141"></rect>
  <rect x="228.305" y="166.102" width="21.2141" height="21.2141"></rect>
  <rect x="332.355" y="166.102" width="21.2141" height="21.2141"></rect>
  <rect x="353.568" y="166.102" width="20.2039" height="21.2141"></rect>
  <rect x="477.822" y="166.102" width="21.2141" height="21.2141"></rect>
  <rect x="499.037" y="166.102" width="20.2039" height="21.2141"></rect>
  <rect x="519.24" y="166.102" width="21.2141" height="21.2141"></rect>
  <rect x="581.873" y="166.102" width="20.2039" height="21.2141"></rect>
  <rect x="602.076" y="166.102" width="21.2141" height="21.2141"></rect>
  <rect x="685.924" y="166.102" width="20.2039" height="21.2141"></rect>
  <rect x="706.127" y="166.102" width="21.2141" height="21.2141"></rect>
  <rect x="788.963" y="166.102" width="21.2141" height="21.2141"></rect>
  <rect x="810.178" y="166.102" width="21.2141" height="21.2141"></rect>
  <rect x="851.596" y="166.102" width="21.2141" height="21.2141"></rect>
  <rect x="872.809" y="166.102" width="20.2039" height="21.2141"></rect>
  <rect x="914.227" y="166.102" width="20.2039" height="21.2141"></rect>
  <rect x="934.432" y="166.102" width="21.2141" height="21.2141"></rect>
  <rect x="955.645" y="166.102" width="21.2141" height="21.2141"></rect>
  <rect x="976.859" y="166.102" width="20.2039" height="21.2141"></rect>
  <rect x="997.064" y="166.102" width="21.2141" height="21.2141"></rect>
  <rect x="1079.9" y="166.102" width="21.2141" height="21.2141"></rect>
  <rect x="1101.11" y="166.102" width="20.2039" height="21.2141"></rect>
  <rect x="1142.53" y="166.102" width="21.2141" height="21.2141"></rect>
  <rect x="1163.75" y="166.102" width="20.2039" height="21.2141"></rect>
  <rect x="1246.58" y="166.102" width="20.2039" height="21.2141"></rect>
  <rect x="1266.79" y="166.102" width="21.2141" height="21.2141"></rect>
  <rect y="187.316" width="21.2141" height="20.2039"></rect>
  <rect x="21.2148" y="187.316" width="20.2039" height="20.2039"></rect>
  <rect x="104.051" y="187.316" width="20.2039" height="20.2039"></rect>
  <rect x="124.254" y="187.316" width="21.2141" height="20.2039"></rect>
  <rect x="145.469" y="187.316" width="21.2141" height="20.2039"></rect>
  <rect x="166.682" y="187.316" width="20.2039" height="20.2039"></rect>
  <rect x="228.305" y="187.316" width="21.2141" height="20.2039"></rect>
  <rect x="208.1" y="187.316" width="20.2039" height="20.2039"></rect>
  <rect x="249.518" y="187.316" width="20.2039" height="20.2039"></rect>
  <rect x="311.141" y="187.316" width="21.2141" height="20.2039"></rect>
  <rect x="332.355" y="187.316" width="21.2141" height="20.2039"></rect>
  <rect x="353.568" y="187.316" width="20.2039" height="20.2039"></rect>
  <rect x="394.986" y="187.316" width="20.2039" height="20.2039"></rect>
  <rect x="415.191" y="187.316" width="21.2141" height="20.2039"></rect>
  <rect x="499.037" y="187.316" width="20.2039" height="20.2039"></rect>
  <rect x="519.24" y="187.316" width="21.2141" height="20.2039"></rect>
  <rect x="581.873" y="187.316" width="20.2039" height="20.2039"></rect>
  <rect x="602.076" y="187.316" width="21.2141" height="20.2039"></rect>
  <rect x="685.924" y="187.316" width="20.2039" height="20.2039"></rect>
  <rect x="706.127" y="187.316" width="21.2141" height="20.2039"></rect>
  <rect x="788.963" y="187.316" width="21.2141" height="20.2039"></rect>
  <rect x="810.178" y="187.316" width="21.2141" height="20.2039"></rect>
  <rect x="851.596" y="187.316" width="21.2141" height="20.2039"></rect>
  <rect x="872.809" y="187.316" width="20.2039" height="20.2039"></rect>
  <rect x="914.227" y="187.316" width="20.2039" height="20.2039"></rect>
  <rect x="934.432" y="187.316" width="21.2141" height="20.2039"></rect>
  <rect x="1079.9" y="187.316" width="21.2141" height="20.2039"></rect>
  <rect x="1101.11" y="187.316" width="20.2039" height="20.2039"></rect>
  <rect x="1142.53" y="187.316" width="21.2141" height="20.2039"></rect>
  <rect x="1163.75" y="187.316" width="20.2039" height="20.2039"></rect>
  <rect x="1246.58" y="187.316" width="20.2039" height="20.2039"></rect>
  <rect x="1266.79" y="187.316" width="21.2141" height="20.2039"></rect>
  <rect y="207.52" width="21.2141" height="21.2141"></rect>
  <rect x="21.2148" y="207.52" width="20.2039" height="21.2141"></rect>
  <rect x="124.254" y="207.52" width="21.2141" height="21.2141"></rect>
  <rect x="145.469" y="207.52" width="21.2141" height="21.2141"></rect>
  <rect x="166.682" y="207.52" width="20.2039" height="21.2141"></rect>
  <rect x="228.305" y="207.52" width="21.2141" height="21.2141"></rect>
  <rect x="249.518" y="207.52" width="20.2039" height="21.2141"></rect>
  <rect x="269.723" y="207.52" width="21.2141" height="21.2141"></rect>
  <rect x="290.936" y="207.52" width="20.2039" height="21.2141"></rect>
  <rect x="311.141" y="207.52" width="21.2141" height="21.2141"></rect>
  <rect x="332.355" y="207.52" width="21.2141" height="21.2141"></rect>
  <rect x="415.191" y="207.52" width="21.2141" height="21.2141"></rect>
  <rect x="436.404" y="207.52" width="20.2039" height="21.2141"></rect>
  <rect x="456.609" y="207.52" width="21.2141" height="21.2141"></rect>
  <rect x="477.822" y="207.52" width="21.2141" height="21.2141"></rect>
  <rect x="499.037" y="207.52" width="20.2039" height="21.2141"></rect>
  <rect x="581.873" y="207.52" width="20.2039" height="21.2141"></rect>
  <rect x="602.076" y="207.52" width="21.2141" height="21.2141"></rect>
  <rect x="623.291" y="207.52" width="20.2039" height="21.2141"></rect>
  <rect x="643.494" y="207.52" width="21.2141" height="21.2141"></rect>
  <rect x="685.924" y="207.52" width="20.2039" height="21.2141"></rect>
  <rect x="706.127" y="207.52" width="21.2141" height="21.2141"></rect>
  <rect x="727.342" y="207.52" width="20.2039" height="21.2141"></rect>
  <rect x="747.545" y="207.52" width="21.2141" height="21.2141"></rect>
  <rect x="768.76" y="207.52" width="20.2039" height="21.2141"></rect>
  <rect x="788.963" y="207.52" width="21.2141" height="21.2141"></rect>
  <rect x="810.178" y="207.52" width="21.2141" height="21.2141"></rect>
  <rect x="851.596" y="207.52" width="21.2141" height="21.2141"></rect>
  <rect x="872.809" y="207.52" width="20.2039" height="21.2141"></rect>
  <rect x="914.227" y="207.52" width="20.2039" height="21.2141"></rect>
  <rect x="934.432" y="207.52" width="21.2141" height="21.2141"></rect>
  <rect x="955.645" y="207.52" width="21.2141" height="21.2141"></rect>
  <rect x="976.859" y="207.52" width="20.2039" height="21.2141"></rect>
  <rect x="997.064" y="207.52" width="21.2141" height="21.2141"></rect>
  <rect x="1018.28" y="207.52" width="20.2039" height="21.2141"></rect>
  <rect x="1038.48" y="207.52" width="21.2141" height="21.2141"></rect>
  <rect x="1079.9" y="207.52" width="21.2141" height="21.2141"></rect>
  <rect x="1101.11" y="207.52" width="20.2039" height="21.2141"></rect>
  <rect x="1142.53" y="207.52" width="21.2141" height="21.2141"></rect>
  <rect x="1163.75" y="207.52" width="20.2039" height="21.2141"></rect>
  <rect x="1183.95" y="207.52" width="21.2141" height="21.2141"></rect>
  <rect x="1205.16" y="207.52" width="20.2039" height="21.2141"></rect>
  <rect x="1225.37" y="207.52" width="21.2141" height="21.2141"></rect>
  <rect x="1246.58" y="207.52" width="20.2039" height="21.2141"></rect>
  <rect x="1266.79" y="207.52" width="21.2141" height="21.2141"></rect>
  <rect y="228.734" width="21.2141" height="21.2141"></rect>
  <rect x="21.2148" y="228.734" width="20.2039" height="21.2141"></rect>
  <rect x="145.469" y="228.734" width="21.2141" height="21.2141"></rect>
  <rect x="166.682" y="228.734" width="20.2039" height="21.2141"></rect>
  <rect x="269.723" y="228.734" width="21.2141" height="21.2141"></rect>
  <rect x="249.518" y="228.734" width="20.2039" height="21.2141"></rect>
  <rect x="290.936" y="228.734" width="20.2039" height="21.2141"></rect>
  <rect x="311.141" y="228.734" width="21.2141" height="21.2141"></rect>
  <rect x="436.404" y="228.734" width="20.2039" height="21.2141"></rect>
  <rect x="456.609" y="228.734" width="21.2141" height="21.2141"></rect>
  <rect x="477.822" y="228.734" width="21.2141" height="21.2141"></rect>
  <rect x="602.076" y="228.734" width="21.2141" height="21.2141"></rect>
  <rect x="623.291" y="228.734" width="20.2039" height="21.2141"></rect>
  <rect x="643.494" y="228.734" width="21.2141" height="21.2141"></rect>
  <rect x="706.127" y="228.734" width="21.2141" height="21.2141"></rect>
  <rect x="727.342" y="228.734" width="20.2039" height="21.2141"></rect>
  <rect x="747.545" y="228.734" width="21.2141" height="21.2141"></rect>
  <rect x="788.963" y="228.734" width="21.2141" height="21.2141"></rect>
  <rect x="810.178" y="228.734" width="21.2141" height="21.2141"></rect>
  <rect x="851.596" y="228.734" width="21.2141" height="21.2141"></rect>
  <rect x="872.809" y="228.734" width="20.2039" height="21.2141"></rect>
  <rect x="914.227" y="228.734" width="20.2039" height="21.2141"></rect>
  <rect x="934.432" y="228.734" width="21.2141" height="21.2141"></rect>
  <rect x="1018.28" y="228.734" width="20.2039" height="21.2141"></rect>
  <rect x="1038.48" y="228.734" width="21.2141" height="21.2141"></rect>
  <rect x="1079.9" y="228.734" width="21.2141" height="21.2141"></rect>
  <rect x="1101.11" y="228.734" width="20.2039" height="21.2141"></rect>
  <rect x="1163.75" y="228.734" width="20.2039" height="21.2141"></rect>
  <rect x="1183.95" y="228.734" width="21.2141" height="21.2141"></rect>
  <rect x="1205.16" y="228.734" width="20.2039" height="21.2141"></rect>
  <rect x="1246.58" y="228.734" width="20.2039" height="21.2141"></rect>
  <rect x="1266.79" y="228.734" width="21.2141" height="21.2141"></rect>
  <rect x="914.227" y="249.948" width="20.2039" height="20.2039"></rect>
  <rect x="934.432" y="249.948" width="21.2141" height="20.2039"></rect>
  <rect x="1018.28" y="249.948" width="20.2039" height="20.2039"></rect>
  <rect x="1038.48" y="249.948" width="21.2141" height="20.2039"></rect>
  <rect x="914.227" y="270.152" width="20.2039" height="21.2141"></rect>
  <rect x="934.432" y="270.152" width="21.2141" height="21.2141"></rect>
  <rect x="955.645" y="270.152" width="21.2141" height="21.2141"></rect>
  <rect x="976.859" y="270.152" width="20.2039" height="21.2141"></rect>
  <rect x="997.064" y="270.152" width="21.2141" height="21.2141"></rect>
  <rect x="1018.28" y="270.152" width="20.2039" height="21.2141"></rect>
  <rect x="1038.48" y="270.152" width="21.2141" height="21.2141"></rect>
  <rect x="955.645" y="291.366" width="21.2141" height="20.2039"></rect>
  <rect x="976.859" y="291.366" width="20.2039" height="20.2039"></rect>
  <rect x="997.064" y="291.366" width="21.2141" height="20.2039"></rect>
</svg>
